<?xml version="1.0" standalone="no"?>
<!DOCTYPE svg PUBLIC "-//W3C//DTD SVG 20010904//EN"
 "http://www.w3.org/TR/2001/REC-SVG-20010904/DTD/svg10.dtd">
<svg version="1.0" xmlns="http://www.w3.org/2000/svg"
 width="360.000000pt" height="450.000000pt" viewBox="0 0 360.000000 450.000000"
 preserveAspectRatio="xMidYMid meet">

<g transform="translate(0.000000,450.000000) scale(0.100000,-0.100000)"
fill="#000000" stroke="none">
<path d="M0 2250 l0 -2250 876 0 c604 0 873 3 869 10 -4 6 -9 221 -11 478 -6
500 -8 567 -19 595 -4 10 -2 24 5 32 10 12 11 44 5 133 -4 64 -7 125 -7 135 1
9 -3 17 -8 17 -5 0 -8 46 -7 103 0 56 -2 107 -5 113 -4 5 -9 111 -13 234 -9
308 -5 287 -69 381 -74 107 -82 156 -35 205 18 19 40 34 48 34 20 0 71 63 71
87 0 10 -7 27 -15 37 -8 11 -15 36 -15 55 0 20 -3 60 -7 90 l-6 53 -83 -7
c-56 -4 -89 -3 -104 5 -13 7 -67 14 -121 17 -76 5 -113 2 -169 -13 l-72 -18
-16 21 c-16 21 -27 22 -252 28 -129 4 -260 11 -290 16 -30 4 -95 15 -145 23
-49 9 -147 16 -217 16 -70 0 -139 5 -155 11 l-28 11 35 13 c19 7 93 18 165 24
72 7 153 14 180 16 289 26 319 30 297 44 -10 6 -5 23 18 72 16 35 33 87 36
114 8 56 40 113 151 264 79 107 149 174 258 243 86 55 265 140 281 134 12 -5
157 28 176 40 14 9 88 11 88 3 0 -4 -6 -10 -12 -13 -10 -5 -10 -7 -1 -12 8 -3
11 -15 7 -30 -3 -13 -1 -31 6 -39 6 -7 11 -22 10 -32 -1 -10 -1 -27 0 -38 5
-35 19 76 25 184 3 57 7 106 9 108 2 2 0 20 -5 40 -5 25 -3 47 5 67 7 17 13
51 14 76 3 116 14 199 28 204 7 3 12 11 9 18 -2 7 0 29 4 48 7 29 9 23 7 -34
-1 -48 3 -71 11 -73 10 -4 13 16 13 76 l0 81 -910 0 -910 0 0 -2250z m859 541
c10 -7 16 -32 17 -80 2 -57 -1 -73 -14 -81 -13 -7 -14 -12 -4 -18 6 -4 21 -50
32 -101 12 -51 27 -106 35 -121 8 -15 25 -57 39 -94 44 -117 128 -246 177
-271 16 -9 43 -30 61 -48 18 -17 44 -40 58 -49 l25 -18 -30 6 c-93 19 -206 99
-290 204 -31 38 -64 74 -74 80 -37 19 -147 246 -185 380 -7 25 -23 65 -36 89
-18 35 -20 49 -11 63 6 10 11 29 11 43 0 25 1 25 88 25 48 0 93 -4 101 -9z"/>
<path d="M1835 4303 c8 -270 14 -364 25 -458 6 -44 10 -159 10 -257 0 -98 2
-178 4 -178 14 0 146 68 169 87 16 13 38 23 50 23 12 0 29 4 37 10 12 7 9 13
-13 34 -16 14 -34 26 -41 26 -7 0 -16 3 -20 8 -4 4 -11 7 -14 8 -4 0 -20 6
-37 13 -28 12 -63 19 -107 20 -15 1 -17 15 -17 124 1 67 3 125 5 128 2 4 23 0
46 -8 24 -9 68 -17 98 -19 30 -3 83 -6 117 -8 52 -4 79 -14 173 -64 68 -36
107 -62 100 -67 -7 -5 7 -18 39 -36 27 -16 58 -41 68 -55 10 -15 32 -40 50
-58 17 -17 41 -51 53 -76 36 -74 122 -224 141 -245 23 -27 89 -183 89 -211 0
-6 -10 -16 -22 -21 -25 -12 -23 -12 202 -33 155 -14 321 -40 345 -52 10 -6 35
-12 55 -14 19 -2 63 -6 98 -9 l62 -6 0 796 0 795 -886 0 -886 0 7 -197z"/>
<path d="M1635 3649 c-11 -4 -54 -15 -95 -24 -82 -19 -266 -104 -344 -161 -66
-47 -132 -107 -128 -117 1 -4 -16 -31 -38 -60 -52 -69 -110 -182 -110 -213 0
-45 -17 -64 -58 -64 -28 0 -33 -3 -22 -10 8 -5 54 -10 102 -10 96 0 89 -2 303
101 66 31 134 61 150 65 54 13 150 62 174 87 13 14 46 34 73 44 57 20 70 41
56 91 -10 35 -5 235 6 263 5 12 0 16 -21 16 -16 0 -38 -4 -48 -8z"/>
<path d="M2309 3390 c-8 -5 -80 -31 -160 -59 -79 -27 -174 -63 -210 -80 l-66
-30 -5 -57 c-7 -79 3 -120 28 -117 33 5 114 -8 114 -18 0 -5 -10 -9 -22 -9
-12 0 -19 -3 -15 -6 3 -3 70 -6 148 -6 79 0 151 -4 160 -9 10 -5 28 -5 46 1
15 5 78 11 139 13 123 4 143 10 121 35 -8 10 -20 35 -27 57 -18 58 -81 176
-97 182 -8 3 -37 30 -65 59 -52 55 -62 60 -89 44z"/>
<path d="M1635 3106 c-16 -13 -50 -27 -75 -31 -25 -4 -59 -18 -77 -31 -17 -13
-42 -25 -55 -25 -13 -1 35 -5 107 -10 71 -4 133 -5 137 -3 10 7 11 124 1 124
-5 0 -21 -11 -38 -24z"/>
<path d="M1860 3030 c0 -6 7 -10 15 -10 8 0 15 2 15 4 0 2 -7 6 -15 10 -8 3
-15 1 -15 -4z"/>
<path d="M715 3001 c-14 -6 -7 -8 28 -9 26 -1 47 3 47 8 0 12 -46 12 -75 1z"/>
<path d="M3495 2889 c-33 -4 -80 -13 -105 -19 -25 -7 -65 -14 -90 -16 -25 -2
-97 -8 -160 -13 -89 -7 -249 -18 -300 -21 -3 0 -6 -41 -7 -92 -1 -50 -6 -94
-11 -97 -5 -3 -12 -27 -16 -53 -4 -26 -11 -50 -17 -53 -5 -4 -9 -14 -9 -24 0
-10 -22 -64 -50 -120 -27 -56 -50 -109 -50 -117 0 -8 -33 -56 -73 -107 -78
-97 -184 -195 -248 -228 l-38 -19 28 43 c16 23 39 51 51 62 28 26 51 72 79
160 12 39 33 104 47 145 13 42 24 87 24 101 0 14 9 42 19 62 11 21 22 60 26
87 4 28 10 52 15 55 7 5 6 37 -5 138 -6 47 -10 57 -26 57 -21 0 -26 -16 -7
-22 7 -3 -33 -8 -89 -11 -119 -8 -134 -13 -192 -61 -23 -20 -50 -36 -60 -36
-9 0 -60 -35 -114 -77 -117 -94 -209 -160 -231 -169 -16 -6 -23 -63 -9 -77 3
-4 5 -41 4 -82 -2 -71 0 -77 28 -112 17 -21 31 -48 31 -60 0 -27 43 -128 59
-137 6 -4 11 -17 11 -28 0 -12 16 -54 35 -94 19 -40 35 -77 35 -83 0 -14 26
-91 57 -169 15 -39 22 -67 16 -73 -10 -10 -30 16 -108 141 -26 41 -51 77 -55
80 -4 3 -16 19 -26 36 -42 68 -128 118 -94 54 7 -13 7 -39 1 -82 -11 -73 -15
-160 -10 -238 1 -30 2 -73 2 -95 -1 -22 -1 -161 -2 -310 -1 -418 -7 -708 -17
-785 -4 -30 -7 -117 -8 -192 l-1 -138 882 0 883 0 0 1450 0 1450 -22 -2 c-13
0 -50 -4 -83 -9z"/>
<path d="M2103 2823 c9 -2 25 -2 35 0 9 3 1 5 -18 5 -19 0 -27 -2 -17 -5z"/>
<path d="M1866 2774 c-3 -9 -6 -49 -6 -90 l0 -75 50 27 c28 15 61 42 75 60 13
18 40 42 60 54 19 12 35 26 35 31 0 5 -47 9 -104 9 -85 0 -105 -3 -110 -16z"/>
</g>
</svg>
